<?xml version="1.0" encoding="UTF-8"?>
<!DOCTYPE svg PUBLIC "-//W3C//DTD SVG 1.1//EN" "http://www.w3.org/Graphics/SVG/1.1/DTD/svg11.dtd">
<!-- Creator: CorelDRAW -->
<svg xmlns="http://www.w3.org/2000/svg" xml:space="preserve" width="210mm" height="297mm" style="shape-rendering:geometricPrecision; text-rendering:geometricPrecision; image-rendering:optimizeQuality; fill-rule:evenodd; clip-rule:evenodd"
viewBox="0 0 210 297"
 xmlns:xlink="http://www.w3.org/1999/xlink">
 <defs>
  <style type="text/css">
   <![CDATA[
    .fil0 {fill:black}
   ]]>
  </style>
 </defs>
 <g id="Ebene_x0020_1">
  <metadata id="CorelCorpID_0Corel-Layer"/>
  <path class="fil0" d="M110.727 134.628c-1.2746,0.3062 -2.2231,0.5039 -2.8653,0.6125 -2.2329,-0.4643 -4.5844,-0.9781 -7.0644,-1.5413 -1.9859,-0.4544 -3.6853,-0.8694 -5.0784,-1.2449l-0.0003 0c-2.1142,-0.5632 -3.5566,-1.0472 -4.3273,-1.4325 -6.274,-3.1321 -11.0066,-5.859 -14.188,-8.1611 -2.4405,-1.7686 -5.8788,-4.8018 -10.3151,-9.0898 -1.7092,-1.65 -2.5886,-2.5095 -2.6479,-2.5787 -0.0098,-0.0099 -0.0098,-0.0098 -0.0098,-0.0198 -0.909,-0.7508 -2.0453,-1.9364 -3.3989,-3.5667 -0.2074,-0.5731 -0.4051,-0.82 -0.6125,-0.741 -0.4249,0.1482 -0.751,0.2668 -0.9782,0.3755 -0.3853,0.1778 -0.6916,0.3951 -0.8991,0.6619 -0.5731,0.7213 -0.5929,1.9365 -0.0692,3.6359 0.1087,0.3458 0.3952,1.6796 0.8596,3.9817 0.3359,0.7904 0.909,2.5887 1.7192,5.3946 0.909,2.8356 1.976,5.3748 3.2011,7.6077 -0.237,0.1285 -0.494,0.2965 -0.7706,0.4941 -0.8694,0.6323 -1.7685,1.4524 -2.6973,2.4601 -0.3063,0.326 -0.5927,0.652 -0.8595,0.9781l-0.0001 0 0 0.0001c-1.7191,2.0451 -2.806,3.9816 -3.2605,5.8292 -0.4806,1.9786 -0.8312,3.5934 -1.0468,4.8499 0.3618,-0.6523 0.7535,-1.3269 1.1753,-2.0241 0.1877,-0.2273 0.3359,-0.4348 0.4643,-0.6027 0.089,-0.0691 0.1779,-0.1779 0.2767,-0.3458 0.0395,-0.0691 0.0791,-0.1383 0.1086,-0.1976l0.01 0c0.8235,-1.6388 2.059,-3.3598 3.7117,-5.1575l0.0003 -0.0005 0.0467 -0.0506 0.0144 -0.0156 0.0011 -0.0012 0.0783 -0.0843 0.0147 -0.0158 0.0009 -0.001 0.0631 -0.0675 0.0158 -0.0169 0.0149 -0.016 0.0009 -0.001 0.0004 -0.0003 0.0307 -0.0326 0.0016 -0.0017 0.0248 -0.0263 0.0126 -0.0134 0.0248 -0.0262 0.0008 -0.0008 0.0161 -0.017c0.0837,-0.0885 0.1684,-0.1771 0.2541,-0.2658l0.0056 -0.0058 0.0158 -0.0165 0.0005 -0.0005 0.0166 -0.017 0.0164 -0.0169 0.0166 -0.017 0.0059 -0.0061 0.0238 -0.0246 0.0072 -0.0074 0.0949 -0.0971 0.0033 -0.0034 0.0973 -0.0989 0.0013 -0.0013 0.0167 -0.017 0.0001 -0.0002 0.017 -0.0171 0.0847 -0.0857c0.3063,-0.3063 0.6718,-0.6521 1.1066,-1.0571 0.1383,-0.1088 0.2668,-0.2075 0.3853,-0.3063l0.0034 -0.0022 0.0032 -0.0022 0.0222 -0.015 0.0001 -0.0001 0.0032 -0.0022 0.0023 -0.0015 0.0009 -0.0007 0.0031 -0.0021 0.0014 -0.0009 0.0041 -0.0029 0.0007 -0.0005 0.001 -0.0007 0.0022 -0.0015 0.0119 -0.0081 0.0005 -0.0003 0.003 -0.0022 0.0011 -0.0007 0.0035 -0.0024 0.0016 -0.0011 0.003 -0.0021 0.006 -0.0042 0.0003 -0.0002 0.0045 -0.0032 0.0013 -0.0008 0.003 -0.0022 0.0052 -0.0036 0.0008 -0.0006 0.003 -0.002 0.0001 -0.0001 0.0086 -0.0059 0.0057 -0.0041 0.0004 -0.0003 0.0031 -0.0021 0.0028 -0.002 0.003 -0.002 0.0013 -0.0009 0.004 -0.0029 0.0006 -0.0004 0.0028 -0.002 0.0058 -0.0041 0.0029 -0.002 0.0028 -0.002 0.0018 -0.0013 0.0011 -0.0008 0.0045 -0.0032 0.0147 -0.0105 0.0007 -0.0004 0.0222 -0.0158 0.0027 -0.002 0.0027 -0.0021 0.0002 0c0.0654,-0.0468 0.1242,-0.0901 0.1769,-0.1295l0.0007 -0.0007 0.0033 -0.0023 0.0032 -0.0024 0.0019 -0.0013 0.0013 -0.0011 0.0032 -0.0024 0.0095 -0.007 0.0014 -0.0011 0.0016 -0.0012 0.0007 -0.0005 0.0115 -0.0087 0.0012 -0.0009 0.0097 -0.0073 0.0041 -0.0031 0.0009 -0.0006 0.002 -0.0016 0.0372 -0.0281 0.0052 -0.004 0.0027 -0.002 0.0014 -0.0011 0.0013 -0.0009 0.0053 -0.004 0.0027 -0.0021 0.0027 -0.002 0.0011 -0.0008 0.0037 -0.0028 0.0008 -0.0006 0.0038 -0.0029 0.0009 -0.0007 0.0026 -0.002 0.0008 -0.0007 0.0017 -0.0011 0.0025 -0.002 0.0021 -0.0014 0.0004 -0.0004 0.0075 -0.0058 0.0025 -0.0018 0.0034 -0.0026 0.0062 -0.0047 0.0039 -0.0029 0.0008 -0.0006 0.0024 -0.0019 0.0024 -0.0017 0.0001 -0.0002 0.0006 -0.0004 0.0039 -0.0029 0.0012 -0.0009 0.001 -0.0009 0.0023 -0.0017 0.0008 -0.0006 0.0014 -0.0012c0.1048,-0.0857 0.1546,-0.1345 0.158,-0.1557 0.5702,-0.4847 1.2536,-1.0271 2.0552,-1.6226 0.7607,-0.5632 1.482,-1.067 2.1736,-1.5215 0.2273,-0.0791 0.336,-0.2766 0.336,-0.6027 0,-0.1581 -0.2372,-0.4446 -0.7213,-0.8596 -0.6225,-0.5434 -1.1362,-1.1955 -1.5512,-1.9562 -1.2647,-2.2627 -2.3318,-4.288 -3.2012,-6.0566 -1.6599,-3.3593 -2.5491,-6.1059 -2.6776,-8.2499 0,-0.01 0.0791,-0.0198 0.2273,-0.0198 0.247,-0.0001 1.3635,1.3634 3.3494,4.1002 2.4898,3.4285 3.7348,5.1378 3.7348,5.1476 3.3296,4.0607 4.9895,6.1653 4.9895,6.3332 0,0.0099 -0.1976,0.2372 -0.5929,0.662 -0.6224,0.6817 -1.1461,1.3141 -1.5709,1.897 -0.386,0.5386 -0.8371,1.273 -1.3388,2.2031 -0.6102,0.5216 -1.3169,1.1865 -2.1193,1.9959 -0.7805,0.7806 -1.5314,1.571 -2.2527,2.3812 -0.6422,0.7212 -0.9683,1.1164 -0.9683,1.1659 0.0001,0.0295 0.0396,0.2272 0.1087,0.5928 0.1482,0.3655 0.4446,0.5433 0.8793,0.5433 0.168,0 0.5039,-0.1482 1.0079,-0.4445 0.4335,-0.2602 0.7834,-0.4062 1.0562,-0.438 -0.0165,0.0954 -0.0327,0.192 -0.0484,0.2897 -0.0209,0.1294 -0.0411,0.2577 -0.061,0.3855 -0.3141,0.5199 -0.8026,1.3202 -1.4606,2.4008 -1.2548,2.144 -1.8773,3.4383 -1.8773,3.9027 0,0.0296 0.0198,0.237 0.0593,0.6421 0.1383,0.3854 0.4841,0.5731 1.0276,0.5731 0.3556,0 0.7706,-0.2174 1.235,-0.6422 0.0988,0.2964 0.1482,0.494 0.1482,0.5928 0,0.2668 -0.2174,1.1066 -0.6422,2.5195 -0.4249,1.4128 -0.6422,2.302 -0.6422,2.6676 0,0.2173 0.0296,0.3952 0.0988,0.5237 0.168,0.3062 0.494,0.4644 0.988,0.4644 0.3894,-0.0001 0.9097,-0.2875 1.5602,-0.87 0.3834,1.0197 0.9803,2.4064 1.7893,4.16 1.3437,2.9047 2.4008,4.9401 3.1814,6.096 0.9386,1.403 1.9167,2.6578 2.9344,3.7743l0 0 14.524 0c-0.7707,0.2964 -1.5216,0.4446 -2.2527,0.4446 -0.3557,0.2273 -0.7312,0.3754 -1.1264,0.4644 0.4348,0.1976 0.909,0.3952 1.4228,0.6027 1.5117,0.5928 3.6261,1.0472 6.353,1.3733 0.9683,0.1087 1.6204,0.2371 1.9662,0.3656 0.4841,0.1877 0.7213,0.4742 0.7212,0.8793 0,0.494 -2.4897,1.3042 -7.4596,2.4207 -2.3021,0 -4.4757,-0.3953 -6.5209,-1.1758 -0.4644,-0.2272 -0.7312,-0.3359 -0.7905,-0.3359 -0.0098,0 -0.0098,0 -0.0098,0 -2.4602,-1.0967 -4.7425,-2.7764 -6.8273,-5.0389l14.524 -0.0001c0.2866,-0.1086 0.5731,-0.2469 0.8695,-0.3951 0.7806,-0.4052 1.3141,-0.8498 1.6105,-1.3536 0,0 0,0 0.0098,0 0.2866,0 0.504,-0.079 0.6423,-0.247 0.1482,0.0296 0.2964,0.0494 0.4446,0.0494 0.6225,0 1.1165,-0.2569 1.4919,-0.7805 0.0099,-0.0099 0.0099,-0.0099 0.0198,-0.0198 -0.2767,-0.2865 -0.5829,-0.6422 -0.909,-1.0769 -0.8991,-1.1955 -1.4721,-2.2329 -1.7389,-3.1123 -0.336,-1.0967 -0.6027,-2.0254 -0.7904,-2.7961 -0.0593,-0.0988 -0.1087,-0.1976 -0.1581,-0.3063 -0.2766,0.7904 -0.6027,1.5315 -0.9683,2.2132 -0.4248,0.7805 -0.8595,1.4326 -1.3239,1.9563 -0.1186,0.2766 -0.2668,0.5631 -0.4545,0.8596 -0.8201,1.2844 -2.0848,1.9266 -3.8138,1.9266 -0.8892,0 -2.5688,-0.8497 -5.0389,-2.5392 -2.1441,-1.4623 -3.5668,-2.5787 -4.2782,-3.3395 -1.8279,-3.3099 -2.9048,-5.5428 -3.2506,-6.6988 -0.1482,-0.5138 -0.2766,-1.4524 -0.3755,-2.8158 -0.0691,-0.8793 -0.0296,-1.5907 0.0989,-2.1242 0.0988,-0.3953 0.3951,-1.1461 0.8991,-2.2429 1.7488,-3.7643 4.0904,-5.6613 7.0051,-5.6811 0.4841,0.4051 0.9386,0.7905 1.3832,1.156 0.0297,0.0296 0.0494,0.0692 0.0791,0.0988 1.0967,0.7806 2.4997,2.1144 4.2189,3.9916 0.6817,0.741 1.3437,1.4919 1.9859,2.2527 1.0967,0.8991 2.0847,1.6994 2.9542,2.3811 0.1877,0.1482 0.3853,0.2964 0.6126,0.4644 0.0988,0.2173 0.1976,0.4446 0.3063,0.6817 0.7114,1.6105 1.1658,2.559 1.3733,2.8258 0.1087,0.3655 0.2174,0.6817 0.3261,0.9682 0.0494,0.1482 0.2074,0.2865 0.4544,0.4249 0.1285,0.4051 0.257,0.7904 0.3854,1.1559 0.4347,1.2252 0.8793,2.144 1.3338,2.7566 0.0988,0.079 0.2075,0.1779 0.3261,0.2865 0,-0.0197 0.0099,-0.0395 0.0197,-0.0493 0.1285,0.1778 0.2668,0.2667 0.3953,0.2667 0.1185,0 0.3063,-0.1086 0.5533,-0.326 0.4644,-0.4051 0.7509,-0.6422 0.8398,-0.7114 0.909,-0.6916 1.9266,-1.0374 3.053,-1.0374 1.0572,0 1.9365,0.3755 2.6479,1.1362 0.1383,0.1581 0.3162,0.3656 0.5335,0.6126 -0.0691,0.3557 -0.2272,0.741 -0.4643,1.1461 -0.1779,-0.0889 -0.4249,-0.1284 -0.7411,-0.1284 -0.9583,0 -1.9068,0.3655 -2.8553,1.0868 -0.8992,0.6817 -1.3437,1.3042 -1.3437,1.8475 0,0.4249 0.4445,0.9288 1.3437,1.5117 0.662,0.4249 1.1658,0.7806 1.5116,1.0671 0.089,0.168 0.1779,0.3359 0.2569,0.5138 0.3162,0.741 0.5928,1.4523 0.8201,2.1439l-0.0002 0c0.6027,1.8377 0.909,3.5075 0.909,5.0192 0.0099,0.7212 -0.0099,1.3832 -0.0494,1.976 0.9485,-0.9584 1.7093,-2.0748 2.2724,-3.3494 0.5336,-1.2153 0.7806,-2.2922 0.7411,-3.2506 -0.0099,-0.1284 -0.0099,-0.2667 -0.0198,-0.3951l0.0002 0c-0.1086,-1.9662 -0.3458,-3.3889 -0.6916,-4.2485 -0.4051,-0.6126 -0.6422,-1.1264 -0.7212,-1.5414 -0.0395,-0.1185 0.247,-1.5215 0.8496,-4.2089 0.0198,-0.0988 0.0395,-0.8694 0.0593,-2.3218 0.089,-0.0297 0.3755,-0.2273 0.8596,-0.5928l0.0099 0c0.1977,0 0.4249,0 0.6916,0.0098 -0.0789,0.3853 -0.1778,0.9288 -0.2963,1.6303 -0.5039,2.2032 -0.7806,3.4482 -0.8201,3.7347 -0.1087,0.6521 -0.1581,0.988 -0.1581,0.9979 -0.1087,0.5434 -0.0889,1.0374 0.0791,1.4622 0.158,0.4348 0.326,0.4545 0.5038,0.0692 0.1878,-0.4051 0.6028,-1.4326 1.2549,-3.0826 0.909,-2.3416 1.3931,-3.873 1.4622,-4.5745 0.0297,-0.3063 0.0297,-1.077 0.0099,-2.3219 -0.0098,-0.9782 0.0494,-1.729 0.1877,-2.2724 0.7213,-1.3931 1.1165,-2.1737 1.1857,-2.3219 0.583,-1.1757 1.7883,-3.1912 3.6261,-6.0269 1.6006,-2.4799 2.4009,-3.8137 2.4009,-3.9817 0.0692,-0.168 0.0592,-0.3359 -0.0395,-0.4841 -0.1976,-0.2866 -0.7312,-0.4248 -1.5908,-0.4248 -1.2942,-0.0001 -2.7763,0.1976 -4.4266,0.5927zm-55.7265 16.1822c0.0721,3.3824 0.3624,6.348 0.8712,8.8838 0.0701,0.3659 0.1526,0.7317 0.2375,1.0976 0.1316,-0.4232 0.2466,-0.8046 0.3455,-1.1372 0.079,-0.3062 0.1383,-0.5631 0.1877,-0.7903 -0.0099,-0.168 -0.0099,-0.3261 -0.0099,-0.4743 0,-1.2449 0.2075,-2.5788 0.6126,-4.0015 0.1285,-0.4446 0.2668,-0.8892 0.4347,-1.3141 0.1285,-0.3951 0.2866,-0.82 0.494,-1.2844 0.1527,-0.3466 0.3074,-0.6693 0.4642,-0.9677 -0.0657,-0.9892 -0.0986,-1.9578 -0.0986,-2.9053 0,-1.6039 0.05,-3.0754 0.1498,-4.4147 -0.1663,-0.2853 -0.32,-0.4574 -0.456,-0.5254 -0.1878,0.0297 -0.3656,0.0889 -0.5237,0.1779 -0.1482,0.3161 -0.3162,0.6916 -0.5039,1.1362 -0.0198,0.0297 -0.0395,0.0691 -0.0494,0.0988 -0.1087,0.247 -0.2174,0.494 -0.3261,0.741 -0.1284,0.326 -0.2667,0.662 -0.3952,1.0078 -0.0099,0.0296 -0.0099,0.0691 -0.0197,0.0988l-0.0198 0c-0.494,1.3536 -0.9386,2.8356 -1.3437,4.4658 0,0.0099 0,0.0099 0,0.0198 -0.0171,0.0278 -0.0341,0.0569 -0.0512,0.0874zm2.7829 15.3688c0.5833,1.464 1.2623,2.8887 2.0389,4.2723 -0.1755,-2.693 0.0146,-6.7509 0.4812,-9.6706 -0.2137,-0.7506 -0.4124,-1.5528 -0.5962,-2.4066 -0.0617,-0.087 -0.1159,-0.1583 -0.17,-0.2214 -0.0099,0 -0.0099,0 -0.0197,0 -0.2075,0 -0.3854,0.0198 -0.5435,0.0691 -0.2766,0.4249 -0.5039,0.8991 -0.6916,1.4326 -0.2766,0.7707 -0.4545,1.6599 -0.5434,2.6578 -0.0137,0.5796 -0.0592,1.1752 -0.0592,1.7488 0,0.0089 0.0322,0.715 0.1035,2.118zm8.2325 12.825c3.8467,4.33 8.398,8.0471 13.6574,11.1507 2.5886,1.5116 5.8985,2.8751 9.9395,4.0804 5.3354,1.5809 10.5423,2.3713 15.6306,2.3812 5.9775,0.0296 12.0539,-1.1461 18.2291,-3.5075 6.6297,-2.5392 12.2812,-6.0664 16.9545,-10.5915 5.5429,-5.365 9.5049,-11.3524 11.886,-17.982l0 0c1.7884,-4.9894 2.6875,-10.3347 2.6875,-16.0355 0,-5.7107 -0.8991,-11.0559 -2.6875,-16.0454 -2.3811,-6.6297 -6.3431,-12.617 -11.886,-17.9819 -9.7122,-9.3962 -21.4401,-14.0892 -35.1836,-14.0892 -11.7081,0 -21.9638,3.4086 -30.7474,10.2358 -0.6409,0.4497 -0.5144,1.0124 0.1384,0.5533 4.1596,-2.8455 8.3982,-4.861 12.7159,-6.0565 4.9105,-1.3536 10.8485,-2.1475 17.8338,-1.9597 7.0052,0.1877 13.1111,1.6139 18.3279,3.8567 4.8117,2.0748 9.8012,5.4637 14.9686,10.1569 4.8908,4.4558 8.4674,9.5442 10.7399,15.2846 1.9563,4.9499 2.9344,10.3643 2.9443,16.2628 -0.0098,5.6514 -0.9682,10.9274 -2.885,15.8181l0 0.0001c-2.2627,5.77 -5.8689,11.0163 -10.7991,15.7292 -4.041,3.8631 -8.9713,6.9062 -14.7809,9.1194 -5.8194,2.223 -11.9946,3.4087 -18.5453,3.5766 -1.4919,0.0296 -2.9739,-0.2964 -4.4362,-0.9979 -1.3931,-0.6619 -2.4108,-1.482 -3.0333,-2.4404 -1.1362,-1.7389 -1.3337,-3.3988 -0.6125,-4.9796 0.8147,-1.7774 3.1638,-6.4462 4.7228,-7.0051 0.2075,-0.3556 0.4347,-0.6224 0.6718,-0.7904 0.2273,-0.3853 0.4644,-0.7508 0.7213,-1.1164 0,-0.2965 0.0099,-0.583 0.0296,-0.8497 -0.4149,0.3557 -0.8101,0.662 -1.1856,0.909 -0.4051,0.4544 -0.9386,0.8003 -1.6105,1.0374 -6.0902,1.9068 -17.4602,-1.0666 -22.3788,-4.5745 -1.5907,-1.1264 -3.1715,-2.5887 -4.7425,-4.3868 -1.4129,-0.7806 -2.4108,-1.4623 -3.0036,-2.0452 -0.3556,-0.3459 -0.7311,-0.7411 -1.1263,-1.1857l-0.0002 0c-0.3556,-0.3853 -0.7212,-0.8102 -1.1065,-1.2646 0.2074,0.3161 0.4248,0.6323 0.6323,0.9484 0.0889,0.1088 0.1877,0.2075 0.2865,0.3162l0.0001 0c0.7015,0.7904 1.4327,1.6105 2.2033,2.4701 0.3755,0.3556 0.7608,0.7113 1.1461,1.0571 0.4249,0.5929 0.8695,1.1264 1.324,1.6105 0.247,0.2668 2.1045,1.9168 5.5626,4.9697 0.7608,0.6719 1.7982,1.403 3.0925,2.1836 1.5117,0.9188 2.6084,1.5215 3.2704,1.8081 0.8497,0.3655 1.4227,0.6323 1.7192,0.8002 0.3853,0.2075 1.4128,0.8893 3.0826,2.0452 0.5632,0.3755 1.0078,0.8596 1.3338,1.4623 0.3261,0.6027 0.4447,1.1856 0.3755,1.7488 -0.1778,1.3931 -1.3536,2.0452 -3.5174,1.976 -3.7446,-0.1185 -7.3608,-1.3832 -10.8386,-3.794 -1.5117,-1.0571 -3.1518,-2.4601 -4.9006,-4.2287 -0.4644,-0.3853 -0.9781,-0.8398 -1.5315,-1.3437 -1.7685,-1.6302 -3.379,-3.2901 -4.8116,-4.9598 -0.9863,-1.1352 -1.9842,-2.586 -2.9914,-4.3471 -0.017,0.0014 -0.0332,0.0035 -0.047,0.0068 -2.2255,0.5362 1.3247,7.5725 2.5611,11.0036zm-3.2181 -46.0161c0.0098,-0.0099 0.0098,-0.0099 0.0198,-0.0198 0,-0.0099 0,-0.0098 0.0098,-0.0098 -0.0098,0.0098 -0.0198,0.0197 -0.0296,0.0296zm36.1124 28.6723c-0.1779,-0.1087 -0.3656,-0.1581 -0.5533,-0.1581 -0.2371,0 -0.4249,0.0495 -0.5533,0.1383 1.0572,0.8102 1.9167,2.3022 2.5787,4.4659 0.5336,1.729 0.8596,3.4778 0.988,5.2463 0.0001,0.1779 0,0.3558 -0.0098,0.5336 0.0395,-0.168 0.079,-0.3162 0.1186,-0.4545 0.0395,-0.4248 0.0691,-0.8892 0.0889,-1.3832 -0.1482,-1.4524 -0.3854,-2.8851 -0.7312,-4.2979 -0.326,-1.324 -0.6718,-2.3416 -1.0472,-3.0431 -0.2668,-0.3458 -0.5534,-0.7015 -0.8794,-1.0473zm-15.1169 -18.6143c-0.1778,0.4348 -0.2766,0.6916 -0.3062,0.7707 -0.5928,1.5808 -0.8893,3.0431 -0.8893,4.3967 0,1.4523 0.4249,2.4009 1.2844,2.8454 0.0495,0.0198 0.089,0.0396 0.1384,0.0692l0.0099 0c1.1956,0 2.4108,-0.7212 3.6656,-2.1736 0.3458,-0.4051 0.6521,-0.8102 0.9188,-1.235 -2.0056,-1.9662 -3.4185,-3.3198 -4.2386,-4.0509 -0.1284,-0.1285 -0.3261,-0.336 -0.583,-0.6225zm6.3037 6.1949c-0.1482,-0.1383 -0.3063,-0.2865 -0.4743,-0.4446 -0.2766,0.6026 -0.5928,1.1856 -0.9386,1.7389 -1.4129,2.2428 -3.0333,3.3592 -4.8512,3.3592 -1.7291,0 -2.9641,-0.9781 -3.7051,-2.9442 -0.2273,-0.6225 -0.3952,-1.3042 -0.5039,-2.0452 -0.0593,-0.6324 -0.0889,-0.9584 -0.0889,-0.9683 0,-0.8793 0.1976,-1.9069 0.6027,-3.0628 0.1285,-0.5336 0.2766,-1.0375 0.4446,-1.5018 0.3458,-0.988 0.741,-1.7587 1.1856,-2.312 -0.0691,-0.0691 -0.1284,-0.1383 -0.1976,-0.2075 -0.2667,-0.2865 -0.5335,-0.5829 -0.7805,-0.8892 -0.5829,0.6126 -1.1264,1.6994 -1.6402,3.2605 -0.2865,0.8595 -0.5335,1.7883 -0.7409,2.7763 -0.168,0.8003 -0.257,1.3042 -0.257,1.5215 0.0001,0.0099 0.0198,0.3162 0.0495,0.8991 0.0691,0.7015 0.1877,1.3339 0.3458,1.9168 0.3062,1.1065 0.741,1.8773 1.3041,2.3219 0.168,0.3062 0.5237,0.7015 1.0671,1.1856 0.9189,0.82 1.818,1.235 2.7171,1.235 1.6797,0 3.3099,-1.067 4.9006,-3.211 0.5632,-0.7608 1.0374,-1.5512 1.4425,-2.391 0.0396,-0.089 0.0791,-0.168 0.1186,-0.2372zm-32.6939 5.5131c0.0198,-0.0593 0.0395,-0.1185 0.0692,-0.1877 -0.0099,0.0198 -0.0099,0.0396 -0.0099,0.0692 -0.0198,0.0395 -0.0395,0.079 -0.0593,0.1185zm45.9433 -18.9897l0 0.0592c0.1087,0.0395 0.2173,0.089 0.3458,0.1384 0.3458,0.0988 0.7706,0.2272 1.2646,0.3754 1.3636,0.4249 2.3812,0.7608 3.0629,1.0177 0.4743,0.1778 0.751,0.4149 0.8399,0.7212 0.0494,0.1779 0.0889,0.4446 0.1185,0.8102 0.089,0.2569 0.1384,0.7707 0.1384,1.5512 0,0.5335 -0.0889,1.482 -0.2767,2.8356 0.01,-0.0197 0.0297,-0.0395 0.0395,-0.0592 0.7114,-0.6917 1.5315,-1.7291 2.4603,-3.1024 1.3239,-1.9465 1.9859,-3.1024 1.9859,-3.4581 0.1186,-0.6225 -0.1581,-0.9386 -0.8398,-0.9386 -0.2667,0 -0.6521,0.1284 -1.1659,0.3754 -1.0671,0.247 -1.9167,0.504 -2.559,0.7905 -0.6421,-0.089 -1.5117,-0.2767 -2.5886,-0.5435 -1.6105,-0.4149 -2.4701,-0.6224 -2.5787,-0.6224 -0.0988,0.0296 -0.1779,0.0494 -0.2471,0.0494zm6.4617 1.8476c-0.0099,0 -0.0099,0 -0.0198,0 0.0198,-0.0098 0.0396,-0.0296 0.0692,-0.0395 -0.0099,0.0098 -0.0296,0.0198 -0.0494,0.0395z"/>
 </g>
</svg>
