/* XPM */
static char *button_apply1[] = {
/* columns rows colors chars-per-pixel */
"16 12 2 1",
"  c black",
". c None",
/* pixels */
"................",
".....   ........",
"....   .........",
"...   ..........",
"..    ..........",
".              .",
"               .",
".              .",
"..    ..........",
"...   ..........",
"....   .........",
".....   ........"
};
