/* XPM */
static char *button_copy1[] = {
/* columns rows colors chars-per-pixel */
"16 24 2 1",
"  c black",
". c None",
/* pixels */
"........        ",
"........        ",
"............    ",
"...........     ",
".....   ..      ",
".....   .    .  ",
".....   .   ..  ",
".....   .  ...  ",
".....   . ....  ",
".....   ......  ",
".....   ........",
"             ...",
"             ...",
"             ...",
".....   ........",
".....   . ....  ",
".....   .  ...  ",
".....   .   ..  ",
".....   .    .  ",
".....   ..      ",
"...........     ",
"............    ",
"........        ",
"........        "
};
